# xmcd
#
# Track frame offsets:
# 150
# 11044
# 23591
# 38681
# 59209
# 70232
# 84718
# 101588
# 116963
# 132703
# 141348
# 151579
# 163661
# 182352
# 198514
# 211482
# 223352
# 236592
# 253740
# 265342
# 277029
# 291447
# 304430
# 320327
# 339243
#
# Disc length: 4761 seconds
#
#
# Revision: 0
# Processed by: cddbd v1.5.2PL0 Copyright (c) Steve Scherf et al.
# Submitted via: FreeRIP 2.945 
#
DISCID=8d129719
DTITLE=kjel cd's - Country Lanes
DYEAR=2002
DGENRE=country lanes
TTITLE0=Silver Threads and Golden Needles
TTITLE1=9 to 5
TTITLE2=Mama She's Lazy
TTITLE3=Damn Good Cowboy
TTITLE4=May the Bird of Paradise Fly Up Your Nose
TTITLE5=My Jeans are to Tight
TTITLE6=Mississippi Squierl
TTITLE7=Credit Card
TTITLE8=300 Dollar Vacation
TTITLE9=You Can't Rollerskate in a Buffalo Heard
TTITLE10=I'm My Own Grandpa
TTITLE11=Wildwood Weed
TTITLE12=Puff Puff
TTITLE13=Colorado Kool-Aid
TTITLE14=She's All I Got
TTITLE15=Take This Job and Shove It
TTITLE16=Slide Off Your Satin Sheets
TTITLE17=Busted
TTITLE18=Holdin' the Bag
TTITLE19=Good Ole Boys
TTITLE20=Hank Williams You Wrote My Life
TTITLE21=Where's the Dress
TTITLE22=The Gambler
TTITLE23=She Believes in Me
TTITLE24=Tennessee Bottle
EXTD=
EXTT0=
EXTT1=
EXTT2=
EXTT3=
EXTT4=
EXTT5=
EXTT6=
EXTT7=
EXTT8=
EXTT9=
EXTT10=
EXTT11=
EXTT12=
EXTT13=
EXTT14=
EXTT15=
EXTT16=
EXTT17=
EXTT18=
EXTT19=
EXTT20=
EXTT21=
EXTT22=
EXTT23=
EXTT24=
PLAYORDER=
